# AST/ASF file generated using VICON BodyLanguage
# -----------------------------------------------
:version 1.10
:name VICON
:units
  mass 1.0
  length 0.45
  angle deg
:documentation
   .ast/.asf automatically generated from VICON data using
   VICON BodyBuilder and BodyLanguage model FoxedUp or BRILLIANT.MOD
:root
   order TX TY TZ RX RY RZ
   axis XYZ
   position 0 0 0  
   orientation 0 0 0 
:bonedata
  begin
     id 1 
     name lhipjoint
     direction 0.627457 -0.725269 0.283342 
     length 2.53237 
     axis 0 0 0  XYZ
  end
  begin
     id 2 
     name lfemur
     direction 0.34202 -0.939693 0  
     length 7.32496  
     axis 0 0 20  XYZ
    dof rx ry rz
    limits (-160.0 20.0)
           (-70.0 70.0)
           (-60.0 70.0)
  end
  begin
     id 3 
     name ltibia
     direction 0.34202 -0.939693 0   
     length 7.69674   
     axis 0 0 20   XYZ
    dof rx
    limits (-10.0 170.0)
  end
  begin
     id 4 
     name lfoot
     direction 0.127289 -0.349722 0.928166   
     length 1.8612   
     axis -90 7.62852e-016 20   XYZ
    dof rx rz
    limits (-45.0 90.0)
           (-70.0 20.0)
  end
  begin
     id 5 
     name ltoes
     direction 1.53561e-011 -4.21864e-011 1   
     length 0.925608   
     axis -90 7.62852e-016 20   XYZ
    dof rx
    limits (-90.0 20.0)
  end
  begin
     id 6 
     name rhipjoint
     direction -0.609094 -0.738725 0.288599   
     length 2.48624  
     axis 0 0 0  XYZ 
  end
  begin
     id 7 
     name rfemur
     direction -0.34202 -0.939693 0   
     length 7.44259   
     axis 0 0 -20   XYZ
    dof rx ry rz
    limits (-160.0 20.0)
           (-70.0 70.0)
           (-70.0 60.0)
  end
  begin
     id 8 
     name rtibia
     direction -0.34202 -0.939693 0   
     length 7.7781   
     axis 0 0 -20   XYZ
    dof rx
    limits (-10.0 170.0)
 end
 begin
     id 9 
     name rfoot
     direction -0.107015 -0.294021 0.949789   
     length 2.14741  
     axis -90 -7.62852e-016 -20   XYZ
    dof rx rz
    limits (-45.0 90.0)
           (-20.0 70.0)
  end
  begin
     id 10 
     name rtoes
     direction -1.53497e-011 -4.21924e-011 1   
     length 1.0706   
     axis -90 -7.62852e-016 -20   XYZ
    dof rx
    limits (-90.0 20.0)
  end
  begin
     id 11 
     name lowerback
     direction -0.0142066 0.998112 -0.0597545   
     length 1.86627   
     axis 0 0 0   XYZ
    dof rx ry rz
    limits (-20.0 45.0)
           (-30.0 30.0)
           (-30.0 30.0)
  end
  begin
     id 12 
     name upperback
     direction 0.00547294 0.999744 0.0219437   
     length 1.86272   
     axis 0 0 0   XYZ
    dof rx ry rz
    limits (-20.0 45.0)
           (-30.0 30.0)
           (-30.0 30.0)
  end
  begin
     id 13 
     name thorax
     direction 0.0116162 0.998704 0.0495538   
     length 1.8703   
     axis 0 0 0   XYZ
    dof rx ry rz
    limits (-20.0 45.0)
           (-30.0 30.0)
           (-30.0 30.0)
  end
  begin
     id 14 
     name lowerneck
     direction -0.0106574 0.998739 0.0490586   
     length 1.8074   
     axis 0 0 0   XYZ
    dof rx ry rz
    limits (-20.0 45.0)
           (-30.0 30.0)
           (-30.0 30.0)
  end
  begin
     id 15 
     name upperneck
     direction 0.030527 0.976587 -0.212944   
     length 1.80681   
     axis 0 0 0   XYZ
    dof rx ry rz
    limits (-20.0 45.0)
           (-30.0 30.0)
           (-30.0 30.0)
  end
  begin
     id 16
     name head
     direction 0.00869225 0.997035 -0.0764531  
     length 1.8313  
     axis 0 0 0   XYZ
    dof rx ry rz
    limits (-20.0 45.0)
           (-30.0 30.0)
           (-30.0 30.0)
  end
  begin
     id 17 
     name lclavicle
     direction 0.915958 0.399447 0.0382386  
     length 3.78965  
     axis 0 0 0   XYZ
    dof ry rz
    limits (-20.0 10.0)
           (0.0 20.0)
  end
  begin
     id 18 
     name lhumerus
     direction 1 -4.48967e-011 3.19303e-027   
     length 4.78095   
     axis -180 -30 -90   XYZ
    dof rx ry rz
    limits (-60.0 90.0)
           (-90.0 90.0)
           (-90.0 90.0)
  end
  begin
     id 19
     name lradius
     direction 1 -4.48967e-011 -3.77974e-027   
     length 3.58615   
     axis -180 -30 -90   XYZ
    dof rx
    limits (-10.0 170.0)
  end
  begin
     id 20
     name lwrist
     direction 1 -4.48927e-011 1.2807e-027   
     length 1.79307   
     axis 1.91374e-015 90 90   XYZ
    dof ry
    limits (-180.0 0.0)
 end
  begin
     id 21 
     name lhand
     direction 1 -4.49036e-011 2.5614e-027   
     length 0.659812   
     axis -1.63439e-015 90 90   XYZ
    dof rx rz
    limits (-90.0 90.0)
           (-45.0 45.0)
  end
  begin
     id 22 
     name lfingers
     direction 1 -4.49052e-011 5.1228e-027   
     length 0.531957   
     axis -3.26879e-015 90 90   XYZ
    dof rx
    limits (0.0 90.0)
  end
  begin
     id 23
     name lthumb
     direction 0.707107 -6.35012e-011 0.707107   
     length 0.763787   
     axis -90 45 2.85299e-015   XYZ
    dof rx rz
    limits (-45.0 45.0)
           (-45.0 45.0)
  end
  begin
     id 24 
     name rclavicle
     direction -0.895351 0.435135 0.0948887   
     length 3.70497  
     axis 0 0 0   XYZ 
    dof ry rz
    limits (-10.0 20.0)
           (-20.0 0.0)
  end
  begin
     id 25 
     name rhumerus
     direction -1 -4.48971e-011 2.38946e-027  
     length 4.48913   
     axis -180 30 90   XYZ
    dof rx ry rz
    limits (-90.0 60.0)
           (-90.0 90.0)
           (-90.0 90.0)
  end
  begin
     id 26 
     name rradius
     direction -1 -4.4895e-011 4.38668e-027   
     length 3.7051   
     axis -180 30 90   XYZ
    dof rx
    limits (-10.0 170.0)
  end
  begin
     id 27 
     name rwrist
     direction -1 -4.49007e-011 1.2807e-027   
     length 1.85255   
     axis 1.91374e-015 -90 -90   XYZ
    dof ry
    limits (-180.0 0.0)
  end
  begin
     id 28
     name rhand
     direction -1 -4.48851e-011 2.5614e-027   
     length 0.449136   
     axis -1.63439e-015 -90 -90   XYZ
    dof rx rz
    limits (-90.0 90.0)
           (-45.0 45.0)
  end
  begin
     id 29
     name rfingers
     direction -1 -4.49128e-011 5.1228e-027   
     length 0.362105   
     axis -3.26879e-015 -90 -90   XYZ
    dof rx
    limits (0.0 90.0)
  end
  begin
     id 30
     name rthumb
     direction -0.707107 -6.34851e-011 0.707107   
     length 0.519912   
     axis -90 -45 -2.85299e-015   XYZ
    dof rx rz
    limits (-45.0 45.0)
           (-45.0 45.0)
  end
:hierarchy
  begin
    root lhipjoint rhipjoint lowerback
    lhipjoint lfemur
    lfemur ltibia
    ltibia lfoot
    lfoot ltoes
    rhipjoint rfemur
    rfemur rtibia
    rtibia rfoot
    rfoot rtoes
    lowerback upperback
    upperback thorax
    thorax lowerneck lclavicle rclavicle
    lowerneck upperneck
    upperneck head
    lclavicle lhumerus
    lhumerus lradius
    lradius lwrist
    lwrist lhand lthumb
    lhand lfingers
    rclavicle rhumerus
    rhumerus rradius
    rradius rwrist
    rwrist rhand rthumb
    rhand rfingers
  end

#!OML:ASF I:\Actors\actors\Patient Classification 2\Patient 1\Session 1\actor1.ASF
:FULLY-SPECIFIED
:DEGREES
1
root -0.645257 18.6658 6.19865 2.2814 -1.39513 -4.94329
lowerback -0.0490568 0.299621 3.58053
upperback -2.5555 0.475072 1.14661
thorax -2.5796 0.171786 -0.837914
lowerneck -13.0558 -1.23532 -0.514053
upperneck 31.2098 -2.16144 1.46498
head 12.5211 -0.838531 0.335834
rclavicle -5.62188e-015 -6.95746e-015
rhumerus -46.1549 -2.55201 -87.1716
rradius 41.003
rwrist 21.9048
rhand -6.59575 -28.4227
rfingers 7.12502
rthumb 19.2596 -57.4891
lclavicle -5.62188e-015 -6.95746e-015
lhumerus -43.0806 2.63895 88.5964
lradius 37.8285
lwrist -8.07104
lhand -6.81422 -29.971
lfingers 7.12502
lthumb 19.0495 -0.883859
rfemur 0 0 0
rtibia 0
rfoot 0 0
rtoes 0
lfemur -4.61023 -7.02383 -9.31831
ltibia 23.1932
lfoot -25.0213 13.3247
ltoes -55.5611
2
root -0.644661 18.6656 6.19979 2.26229 -1.41871 -4.9256
lowerback -0.045942 0.313516 3.57596
upperback -2.55755 0.49348 1.13404
thorax -2.58263 0.180854 -0.848685
lowerneck -13.0192 -1.22845 -0.52685
upperneck 31.2027 -2.16158 1.50833
head 12.5112 -0.834688 0.354841
rclavicle -1.6437e-014 1.05356e-014
rhumerus -46.1986 -2.55353 -87.1792
rradius 41.041
rwrist 21.8889
rhand -6.62296 -28.4147
rfingers 7.12502
rthumb 19.2334 -57.4837
lclavicle -1.6437e-014 1.05356e-014
lhumerus -43.101 2.55888 88.6695
lradius 37.9645
lwrist -8.15781
lhand -6.44195 -28.9604
lfingers 7.12502
lthumb 19.4075 0.0910563
rfemur 0 0 0
rtibia 0
rfoot 0 0
rtoes 0
lfemur -4.57012 -7.04662 -9.35109
ltibia 23.193
lfoot -25.0859 13.3746
ltoes -55.5884
3
root -0.643909 18.6651 6.20102 2.26941 -1.4522 -4.95992
lowerback -0.0661005 0.323917 3.61376
upperback -2.56009 0.507262 1.14746
thorax -2.57326 0.187172 -0.856192
lowerneck -13.0206 -1.21887 -0.517903
upperneck 31.2161 -2.14675 1.49737
head 12.5165 -0.82834 0.351257
rclavicle -8.05078e-015 2.18663e-015
rhumerus -46.2175 -2.53803 -87.1793
rradius 41.0641
rwrist 21.8753
rhand -6.66875 -28.4468
rfingers 7.12502
rthumb 19.1894 -57.5201
lclavicle -8.05078e-015 2.18663e-015
lhumerus -43.1346 2.50198 88.725
lradius 38.0846
lwrist -8.11261
lhand -6.83435 -28.9969
lfingers 7.12502
lthumb 19.0301 0.0920967
rfemur 0 0 0
rtibia 0
rfoot 0 0
rtoes 0
lfemur -4.5684 -7.03441 -9.31897
ltibia 23.1982
lfoot -25.0882 13.3942
ltoes -55.5972
4
root -0.644424 18.6652 6.20097 2.30784 -1.44458 -4.96916
lowerback -0.0941738 0.316803 3.59711
upperback -2.57685 0.497083 1.16549
thorax -2.57541 0.182472 -0.828009
lowerneck -13.0181 -1.2179 -0.501627
upperneck 31.2102 -2.12848 1.43196
head 12.5122 -0.8269 0.326083
rclavicle -2.34814e-015 -4.17448e-015
rhumerus -46.2198 -2.4865 -87.1904
rradius 41.0566
rwrist 21.8505
rhand -6.70669 -28.5143
rfingers 7.12502
rthumb 19.1529 -57.5912
lclavicle -2.34814e-015 -4.17448e-015
lhumerus -43.1666 2.49897 88.744
lradius 38.1372
lwrist -8.05087
lhand -7.22027 -29.3541
lfingers 7.12502
lthumb 18.659 -0.229034
rfemur 0 0 0
rtibia 0
rfoot 0 0
rtoes 0
lfemur -4.62169 -6.9783 -9.29443
ltibia 23.1989
lfoot -25.0224 13.318
ltoes -55.5866
5
root -0.64498 18.6652 6.20135 2.31372 -1.43674 -4.94236
lowerback -0.106046 0.321997 3.56832
upperback -2.57701 0.502764 1.15209
thorax -2.56868 0.185886 -0.825733
lowerneck -12.9967 -1.22218 -0.509902
upperneck 31.172 -2.13517 1.44365
head 12.4923 -0.829671 0.331119
rclavicle -4.41053e-015 1.2921e-014
rhumerus -46.2062 -2.44531 -87.226
rradius 41.0377
rwrist 21.8037
rhand -6.72116 -28.5825
rfingers 7.12502
rthumb 19.139 -57.6608
lclavicle -4.41053e-015 1.2921e-014
lhumerus -43.1602 2.45223 88.7579
lradius 38.1366
lwrist -8.04178
lhand -7.22706 -29.3397
lfingers 7.12502
lthumb 18.6524 -0.213981
rfemur 0 0 0
rtibia 0
rfoot 0 0
rtoes 0
lfemur -4.62549 -6.96446 -9.3167
ltibia 23.1984
lfoot -25.0309 13.2823
ltoes -55.5845
6
root -0.644324 18.6641 6.20278 2.26339 -1.45079 -4.93119
lowerback -0.0957061 0.335397 3.57747
upperback -2.54827 0.519985 1.1336
thorax -2.54391 0.19473 -0.850209
lowerneck -12.9952 -1.23071 -0.549466
upperneck 31.1708 -2.17081 1.5487
head 12.494 -0.836496 0.372975
rclavicle -1.06847e-015 -1.92821e-014
rhumerus -46.1826 -2.43943 -87.2492
rradius 41.0286
rwrist 21.7688
rhand -6.67395 -28.5972
rfingers 7.12502
rthumb 19.1844 -57.671
lclavicle -1.06847e-015 -1.92821e-014
lhumerus -43.126 2.39391 88.7757
lradius 38.1153
lwrist -8.01182
lhand -7.16591 -29.3159
lfingers 7.12502
lthumb 18.7113 -0.195826
rfemur 0 0 0
rtibia 0
rfoot 0 0
rtoes 0
lfemur -4.55912 -6.99216 -9.34306
ltibia 23.1992
lfoot -25.0814 13.3151
ltoes -55.6026
7
root -0.643944 18.6642 6.2033 2.22431 -1.45535 -4.92152
lowerback -0.0745681 0.338733 3.56429
upperback -2.53266 0.524686 1.12819
thorax -2.53953 0.197529 -0.848603
lowerneck -13.0206 -1.23153 -0.534783
upperneck 31.2123 -2.18441 1.57142
head 12.5169 -0.837376 0.377054
rclavicle 2.96313e-015 4.57205e-015
rhumerus -46.1763 -2.42805 -87.2587
rradius 41.03
rwrist 21.7175
rhand -6.61585 -28.612
rfingers 7.12502
rthumb 19.2402 -57.6803
lclavicle 2.96313e-015 4.57205e-015
lhumerus -43.0879 2.39407 88.776
lradius 38.0557
lwrist -8.00336
lhand -7.10749 -29.3298
lfingers 7.12502
lthumb 18.7674 -0.215121
rfemur 0 0 0
rtibia 0
rfoot 0 0
rtoes 0
lfemur -4.52172 -6.98047 -9.36228
ltibia 23.2009
lfoot -25.0602 13.3341
ltoes -55.6659
8
root -0.6442 18.6655 6.20351 2.2271 -1.44435 -4.91865
lowerback -0.076258 0.336157 3.56493
upperback -2.53571 0.52115 1.1225
thorax -2.5418 0.195617 -0.854724
lowerneck -13.0349 -1.21632 -0.504561
upperneck 31.2228 -2.16748 1.56206
head 12.5235 -0.827277 0.370607
rclavicle -1.56543e-015 -2.5842e-015
rhumerus -46.1731 -2.4121 -87.2727
rradius 41.0244
rwrist 21.6509
rhand -6.63265 -28.6393
rfingers 7.12502
rthumb 19.2241 -57.7091
lclavicle -1.56543e-015 -2.5842e-015
lhumerus -43.0606 2.37843 88.7732
lradius 37.9928
lwrist -8.00623
lhand -7.16916 -29.3274
lfingers 7.12502
lthumb 18.7081 -0.206983
rfemur 0 0 0
rtibia 0
rfoot 0 0
rtoes 0
lfemur -4.52862 -6.96529 -9.36308
ltibia 23.2012
lfoot -25.0195 13.3473
ltoes -55.7492
9
root -0.644452 18.6654 6.20358 2.23496 -1.43241 -4.90732
lowerback -0.0879838 0.328697 3.56487
upperback -2.53644 0.510503 1.11538
thorax -2.53632 0.190294 -0.86172
lowerneck -13.0223 -1.20713 -0.518749
upperneck 31.1819 -2.16317 1.60514
head 12.5047 -0.821816 0.39014
rclavicle 4.02539e-015 -1.0138e-014
rhumerus -46.155 -2.41101 -87.2738
rradius 41.0095
rwrist 21.6374
rhand -6.73849 -28.6458
rfingers 7.12502
rthumb 19.1223 -57.7258
lclavicle 4.02539e-015 -1.0138e-014
lhumerus -43.0553 2.32681 88.7929
lradius 38.0028
lwrist -7.95754
lhand -7.21929 -29.2713
lfingers 7.12502
lthumb 18.6599 -0.146329
rfemur 0 0 0
rtibia 0
rfoot 0 0
rtoes 0
lfemur -4.53235 -6.99909 -9.37605
ltibia 23.2001
lfoot -25.0341 13.3488
ltoes -55.7066
